<?xml version="1.0" encoding="utf-8"?>
<!-- Generator: Adobe Illustrator 20.0.0, SVG Export Plug-In . SVG Version: 6.00 Build 0)  -->
<svg version="1.1" id="Layer_1" xmlns="http://www.w3.org/2000/svg" xmlns:xlink="http://www.w3.org/1999/xlink" x="0px" y="0px"
	 viewBox="0 0 903.1 903.1" style="enable-background:new 0 0 903.1 903.1;" xml:space="preserve">
<style type="text/css">
	.st0{display:none;}
	.st1{display:inline;fill:#383838;}
	.st2{fill:#FFFFFF;}
</style>
<circle cx="451.5" cy="451.5" r="451.5"/>
<g id="Layer_3" class="st0">
	<rect x="151.5" y="151.5" class="st1" width="600" height="600"/>
</g>
<path class="st2" d="M718.4,524.3c-2.9,0.8-6,1-9.1,1c-6.3,0.2-12.6,0.3-18.9,0c-3.9-0.2-5.5,0.8-6.3,5c-6.9,35-22.8,65.4-47.1,91.6
	c-2.4,2.6-4.2,6.2-5.3,9.7c-10.4,34-20.6,68.2-30.8,102.2c-3.9,13.2-9.4,17.3-23.2,17.3c-9.2,0-18.3,0-27.5,0
	c-11.4,0-17.7-4.7-20.9-15.4c-3.7-12.4-7.3-24.7-10.9-37.1c-1.8-6.2-4.6-8-10.9-6.7c-32.7,6-65.5,5.9-98.2,0
	c-5.9-1.1-8.8,0.7-10.5,6.6c-3.6,12.2-7.2,24.4-10.7,36.5c-3.4,11.6-9.4,16.3-21.4,16.3c-9.7,0-19.4,0-29,0
	c-11.4,0-17.6-4.7-20.9-15.4c-7.8-25.4-15.7-50.9-23.2-76.3c-2-6.9-5.9-11.3-12.5-14.2c-36.6-16.5-70.1-37.8-100.5-64.1
	c-10.1-9.2-15.4-20.4-15.4-34.5c0-21.2,0-42.5,0-63.6c0.1-18.5,12.5-30.9,31-31.1c2.4,0,4.8-0.4,7.1,0.1c10.9,2,18.3-3,25.4-10.8
	c12.6-13.7,23.5-28.6,33.2-44.3c1.1-1.8,1.1-4.6,0.7-6.7c-3-16.1-10.1-30.2-21.5-42c-5.3-5.5-8-11.4-5.2-18.8
	c2.9-7.3,8.8-9.9,16.5-10.5c24.9-2.2,47.8,3.2,69.2,15.9c2.9,1.7,4.8,1.6,7.8,0c12.1-6.5,24.4-12.6,37.3-19.1
	c-5.3-16.5-6.2-33.8-2.8-51.2c5.4-27.5,20-48.9,43-64.8c1.8-1.3,3.8-3.5,4.3-5.5c7.5-24.9,25.7-40,51.8-41.6
	c12.8-0.8,25.8-1.1,38.4,2.8c15.2,4.7,26.5,14.2,33.4,28.6c1.5,3.2,3.5,4.9,6.7,6.2c21.4,8,35,22.8,38.8,45.7
	c1,5.5,1.2,11.7,0.1,17.2c-3.2,15.3-7.1,30.3-13.6,43.1c6,12.2,11.5,23.8,17.3,35.1c0.8,1.6,2.8,2.8,4.3,3.8
	c40.1,24.5,70.8,57.3,87.5,101.8c3.7,9.8,6.2,20.1,8.4,30.2c1,4.7,2.7,5.5,6.9,5.5c7.8-0.2,15.7-0.4,23.4,0.4
	c12.4,1.1,22.1,11.5,22.9,23.4C738.6,509.4,730.8,521.1,718.4,524.3z M510.1,311c-8.7-4.5-17.9-8-26.8-12.3
	c-6.5-3.2-13.2-6.4-19-10.5c-7.2-5.2-5.5-15,2.5-18.4c3.4-1.4,7.2-2,10.9-2.2c12.2-0.4,23.9,2.1,35,7.3c7.8,3.7,12,1.8,14.5-6
	c2.2-6.7,4.1-13.6,6.1-20.4c1.8-6.7,0-11.6-6.6-13.9c-8.8-3-17.7-5.7-26.8-7.8c-4.3-1-6.1-2.8-5.9-7.1c0.1-3.5-0.1-7.1-0.5-10.7
	c-0.8-7.1-3.3-9.5-10.4-9.9c-5.8-0.3-11.6-0.3-17.3-0.1c-6.7,0.2-9.6,3-10,9.7c-0.3,4.6-0.3,9.2-0.1,13.8c0.2,4.1-1.5,6.2-5.3,7.5
	c-4,1.4-7.9,3-11.7,5c-35.6,17.1-42.5,69.6-6.5,93c9.2,6,19.9,10.1,29.8,15.2c8,4,16.5,7.4,23.8,12.4c8.9,6.1,7,19.1-3,22.9
	c-5.7,2.1-12.2,3.2-18.3,3c-12.5-0.3-24.2-4.2-35.4-9.8c-8.4-4.2-12.4-2.6-15.3,6.5c-1.8,6-3.6,12-5.2,18.1
	c-2.6,9.8-1.1,14.1,8.4,17.7c10.1,3.8,20.6,6.6,31.2,9c4.3,1,6.1,2.5,5.7,6.9c-0.3,3.9-0.1,7.8-0.1,11.7c0.1,7.2,4.2,11.2,11.5,11.4
	c2.7-0.1,5.4-0.2,8.2-0.2s5.4,0,8.2,0c7.5-0.1,11.3-3.7,11.5-11.2c0.1-4.2,0.5-8.5,0-12.7c-0.7-5.9,1.7-8.3,7.2-10
	c22.8-6.9,39.9-27.2,42-49.5C544.5,345.1,532.2,322.4,510.1,311z M302.1,433.1c-13.3-0.1-24,10.3-24,23.7
	c-0.2,13.5,10.5,24.2,24,24.2c13,0,24-10.8,24-23.9C326.1,444,315.3,433.2,302.1,433.1z"/>
<g id="Layer_1_1_">
</g>
</svg>
