<?xml version="1.0" encoding="utf-8"?>
<!-- Generator: Adobe Illustrator 20.0.0, SVG Export Plug-In . SVG Version: 6.00 Build 0)  -->
<svg version="1.1" id="Layer_1" xmlns="http://www.w3.org/2000/svg" xmlns:xlink="http://www.w3.org/1999/xlink" x="0px" y="0px"
	 viewBox="0 0 793.5 256.5" style="enable-background:new 0 0 793.5 256.5;" xml:space="preserve">
<g>
	<path d="M117.1,175.6c0-8-1.9-16.6-6.2-23.4c-9.8-15.4-24.8-16.1-41.2-16.1H46V216h25.1c7.8,0,16.1,0,23.4-2.9
		C109.9,207,117.1,191.4,117.1,175.6L117.1,175.6z M93.6,175.3c0,6.6-1.9,13.9-7.2,18.2c-4.1,3.3-8.5,3.8-13.6,3.8h-4v-42.5h1.9
		c5,0,10.9,0.1,15.8,3.6C91.9,162.3,93.6,169.1,93.6,175.3L93.6,175.3z M192.3,216l-29.2-79.9H139L109.8,216H133l4.5-14h27.2l4.9,14
		H192.3L192.3,216z M159,184.9h-15.8c2.7-9.2,5.4-18.2,7.9-27.4C153.6,166.7,156.3,175.7,159,184.9L159,184.9z M238.1,154.7v-18.6
		h-55.9v18.6H199V216h22.5v-61.3H238.1L238.1,154.7z M310.6,216l-29.2-79.9h-24.1L228.2,216h23.2l4.5-14H283l4.9,14H310.6L310.6,216
		z M277.4,184.9h-15.8c2.7-9.2,5.4-18.2,7.9-27.4C271.9,166.7,274.7,175.7,277.4,184.9L277.4,184.9z M417.6,216v-18.8h-25v-61.1
		h-22.7V216H417.6L417.6,216z M502.8,216l-29.2-79.9h-24.1L420.4,216h23.2l4.5-14h27.2l4.9,14H502.8L502.8,216z M469.6,184.9h-15.8
		c2.7-9.2,5.4-18.2,7.9-27.4C464.1,166.7,466.9,175.7,469.6,184.9L469.6,184.9z M566.8,194.1c0-7.2-2.5-13.7-8.7-17.8
		c-1.9-1.2-4.1-2-6.2-2.8c1-0.8,2.2-1.5,3.2-2.3c4.3-3.6,6.4-8.9,6.4-14.5c0-3.3-0.7-6.9-2.3-9.8c-5.2-10.1-16.1-10.7-26.1-10.7
		h-27.7V216h26.8C548,216,566.8,214.8,566.8,194.1L566.8,194.1z M540.8,159.8c0,5.9-4.5,7.7-9.6,7.7h-4.4v-15.3h4.8
		C536.4,152.2,540.8,154.2,540.8,159.8L540.8,159.8z M544.2,191.7c0,6.8-5.1,8.3-10.7,8.3h-6.7v-16.3h7.4
		C539.6,183.7,544.2,185.4,544.2,191.7L544.2,191.7z"/>
	<path d="M105,121V98.4c-5.4,4.4-11.3,7.7-18.6,7.7c-12.1,0-19.9-10.3-19.9-21.8c0-12,8.4-22.2,20.8-22.2c6.9,0,12.3,3.3,17.3,7.9
		l0.1-23.6c-5.5-3.3-12.1-4.3-18.6-4.3c-25,0-43.2,17.1-43.2,42.4c0,12.4,5,24.7,14.5,32.8c7.6,6.4,16.7,8.7,26.6,8.7
		C92.1,126.1,97.9,124.6,105,121L105,121z M132.3,124V44.1h-23V124H132.3L132.3,124z M215.7,44.1h-23.2L176,89.4l-17.9-45.3h-23.3
		l32.9,79.9h15.4L215.7,44.1L215.7,44.1z M241.1,124V44.1h-23V124H241.1L241.1,124z M306.7,121V98.4c-5.4,4.4-11.3,7.7-18.6,7.7
		c-12.1,0-19.9-10.3-19.9-21.8c0-12,8.4-22.2,20.8-22.2c6.9,0,12.3,3.3,17.3,7.9l0.1-23.6c-5.5-3.3-12.1-4.3-18.6-4.3
		c-25,0-43.2,17.1-43.2,42.4c0,12.4,5,24.7,14.5,32.8c7.6,6.4,16.7,8.7,26.6,8.7C293.8,126.1,299.7,124.6,306.7,121L306.7,121z
		 M441.1,83.6c0-8-1.9-16.6-6.2-23.4c-9.8-15.4-24.8-16.1-41.2-16.1H370V124h25.1c7.8,0,16.1,0,23.4-2.9
		C433.9,115,441.1,99.4,441.1,83.6L441.1,83.6z M417.6,83.3c0,6.6-1.9,13.9-7.2,18.2c-4.1,3.3-8.5,3.8-13.6,3.8h-4V62.8h1.9
		c5,0,10.9,0.1,15.8,3.6C415.9,70.3,417.6,77.1,417.6,83.3L417.6,83.3z M492.3,124v-18.6H466V93.1h22.2V74.3H466V62.8h25.3V44.1
		h-46.8V124H492.3L492.3,124z M554.8,98.2c0-30.3-34.8-19.8-34.8-32.4c0-4.5,4.4-6.6,8.4-6.6c5.9,0,11.4,3.5,16,6.9l7.7-16
		c-8.9-5.4-15-8.1-25.9-8.1c-16.3,0-28.3,8.7-28.3,25.7c0,8.5,3.8,15.5,11.7,19c3.7,1.7,7.8,2.6,11.8,3.6c5.1,1.4,11.4,2.6,11.4,9.3
		c0,5.7-4.8,8.5-10,8.5c-6.6,0-13.8-4.9-18.8-8.7l-7.8,16.6c9.2,6.6,17.3,10,28.8,10c9.1,0,16.9-2.4,23.1-9.3
		C552.7,111.5,554.8,105.3,554.8,98.2L554.8,98.2z M581.8,124V44.1h-23V124H581.8L581.8,124z M667.7,81.1v-2.9h-40v17.6h17.2
		c-1.4,7.8-7.2,12.3-16.1,12.3c-12.3,0-19.9-9.1-19.9-23.9c0-14.4,7.2-23.4,18.9-23.4c7.2,0,11.7,2.8,15.8,10l20.4-9.6
		c-2.7-4.4-3.8-6-6.1-8.4c-6.9-7.1-17-10.7-29.5-10.7c-26.1,0-42.8,16.6-42.8,42.5c0,25.1,16.4,41.4,41.6,41.4
		C653.6,126.1,667.7,110.4,667.7,81.1L667.7,81.1z M752.3,124V44.1h-22.5l0.7,46.5l-35.8-46.5h-22.5V124h22.7l-0.8-47.4l35.5,47.4
		H752.3L752.3,124z"/>
</g>
</svg>
