<?xml version="1.0" encoding="utf-8"?>
<!-- Generator: Adobe Illustrator 20.0.0, SVG Export Plug-In . SVG Version: 6.00 Build 0)  -->
<svg version="1.1" id="Layer_1" xmlns="http://www.w3.org/2000/svg" xmlns:xlink="http://www.w3.org/1999/xlink" x="0px" y="0px"
	 viewBox="0 0 903 903" style="enable-background:new 0 0 903 903;" xml:space="preserve">
<style type="text/css">
	.st0{fill:#FFFFFF;}
</style>
<circle cx="451.5" cy="451.5" r="451.5"/>
<path class="st0" d="M538.1,506.3C475.5,568.9,344.9,666,165.8,750.5c-1.4,0.6-2.9,1-4.2,1c-2.6,0-5.1-1-7.1-2.9
	c-3-3-3.7-7.5-2-11.4c26.2-55.5,53.5-106.3,80.7-151.9l10.5,4.6c9.6,4,24.2,12.6,30.6,18.8c2,2,4.5,2.9,7.1,2.9c2.5,0,5.1-1,7.1-2.9
	c3.9-3.9,3.9-10.2,0-14.1c-8.7-8.6-25.5-18.5-36.8-23.1l-7.9-3.4c11.9-19.5,23.7-37.8,35.3-55.2l12.7,3.9
	c18.3,5.7,34.2,14,42.3,22.1c2,2,4.5,2.9,7.1,2.9c2.5,0,5.1-1,7.1-2.9c3.9-3.9,3.9-10.2,0-14.1c-14.4-14.4-37.8-23.1-50.5-27.1
	l-6.9-2.1c11.2-16.2,22.2-31.4,32.9-45.5l15,3.2c19.1,4.7,43.6,13.9,55.3,25.6c2,2,4.5,2.9,7.1,2.9c2.5,0,5.1-1,7.1-2.9
	c3.9-3.9,3.9-10.2,0-14.1c-17.8-17.8-51.2-27.6-64.9-30.9l-6-1.2c13.2-16.7,25.8-31.7,37.6-44.8l16.6,4.5
	c12.1,2.1,46.8,11.1,62.4,26.7c2,2,4.5,2.9,7.1,2.9c2.5,0,5.1-1,7.1-2.9c3.9-3.9,3.9-10.2,0-14.1c-23.2-23.2-70.9-31.9-72.1-32.1
	l-5.6-1.4c2.1-2.1,4.2-4.5,6.4-6.5c57.9-57.9,118.8-18.2,136.1-4.6c3.7,2.9,7.1,6.2,10,10C556.4,387.5,596,448.4,538.1,506.3z
	 M734.3,335.6c-15.2,15.2-37.9,19.8-57.5,13c-2.2,10.2-7.2,19.7-14.8,27.3c-10.9,10.9-25,16.2-39.2,16.2s-28.5-5.4-39.2-16.2
	c-7.6-7.6-12.5-17.3-14.7-27.6l36.2-36.3h35.7c5.5,0,10-4.5,10-10s-4.5-10-10-10H625l20-20h15.8c5.5,0,10-4.5,10-10s-4.5-10-10-10
	h-10v-19.6c0-5.5-4.5-10-10-10s-10,4.5-10,10v25.8l-20,20v-5.9c0-5.5-4.5-10-10-10s-10,4.5-10,10v25.8l-36.3,36.2
	c-10.2-2.1-19.7-7.2-27.3-14.8c-21.6-21.6-21.6-56.8,0-78.5c7.5-7.5,17-12.6,27.3-14.8c-6.9-19.7-2.4-42.3,13-57.5
	c21.6-21.6,56.8-21.6,78.5,0c3.9,3.9,7.1,8.4,9.7,13.2c20.7-9.9,45.8-6,62.6,10.9c16,16,20.5,40.2,12,60.6c1.5,1.1,2.9,2.4,4.1,3.7
	C755.9,278.8,755.9,314,734.3,335.6z"/>
</svg>
