<?xml version="1.0" encoding="utf-8"?>
<!-- Generator: Adobe Illustrator 20.0.0, SVG Export Plug-In . SVG Version: 6.00 Build 0)  -->
<svg version="1.1" id="Layer_1" xmlns="http://www.w3.org/2000/svg" xmlns:xlink="http://www.w3.org/1999/xlink" x="0px" y="0px"
	 viewBox="0 0 903 903" style="enable-background:new 0 0 903 903;" xml:space="preserve">
<style type="text/css">
	.st0{fill:#FFFFFF;}
</style>
<circle cx="451.5" cy="451.5" r="451.5"/>
<path class="st0" d="M216,704.6c25.9,25.9,68.2,25.9,94.1,0c36.3-36.3,95.4-36.3,131.8,0c5.2,5.2,5.2,13.6,0,18.8
	c-2.7,2.7-6,3.9-9.4,3.9s-6.9-1.3-9.4-3.9c-25.9-25.9-68.2-25.9-94.1,0c-18.2,18.2-42,27.2-65.9,27.2s-47.7-9-65.9-27.2
	c-36.3-36.3-36.5-95.4-0.1-131.8l46.8-47.1l0,0c-4.8-5.2-5.1-13.6,0.1-18.8l28.3-28.2l-9.4-9.4c-5.1-5.1-5.2-13.1-0.4-18.4
	L416,302.4l89.3,89.3L337.9,545c-2.5,2.3-5.8,3.5-9,3.5c-3.4,0-6.9-1.3-9.4-3.9l-9.4-9.4l-28.2,28.2c-2.5,2.5-5.9,3.9-9.4,3.9
	s-6.9-1.4-9.4-3.9L216,610.5C190.1,636.4,190.1,678.7,216,704.6z M434,282.7l35.7-38.8c0.4-0.5,1-0.6,1.3-1
	c0.1-24.7,9.8-47.8,27.2-65.3c17.6-17.6,41-27.2,65.9-27.2c24.9,0,48.3,9.6,65.9,27.2s27.3,41,27.3,65.9s-9.8,48.3-27.3,65.9
	c-17.5,17.5-40.6,27.1-65.3,27.2c-0.4,0.5-0.6,1-1,1.3l-38.8,35.7L434,282.7z M736.7,625.1c0,22-17.6,39.9-39.6,39.9
	s-39.8-18-39.8-39.9c0-21.9,17.7-39.9,39.8-39.9c4.7,0,9.5,1,13.1,2.4v-78.5l-79.5,20v122.6c0,22-17.8,39.9-39.9,39.9
	c-22,0-39.9-18-39.9-39.9c0-21.9,18-39.9,40-39.9c4.7,0,9.8,1,13.4,2.4v-95.7c0-6.1,4.1-11.4,10.1-12.9L720.9,479
	c4-1.1,8-0.1,11.1,2.4c3.3,2.5,4.8,6.4,4.8,10.5L736.7,625.1L736.7,625.1L736.7,625.1z"/>
</svg>
