<?xml version="1.0" encoding="utf-8"?>
<!-- Generator: Adobe Illustrator 20.0.0, SVG Export Plug-In . SVG Version: 6.00 Build 0)  -->
<svg version="1.1" id="Layer_1" xmlns="http://www.w3.org/2000/svg" xmlns:xlink="http://www.w3.org/1999/xlink" x="0px" y="0px"
	 viewBox="0 0 903 903" style="enable-background:new 0 0 903 903;" xml:space="preserve">
<style type="text/css">
	.st0{fill:#FFFFFF;}
</style>
<circle cx="451.5" cy="451.5" r="451.5"/>
<g>
	<path class="st0" d="M661.5,553.7l-210,186.8L241.7,553.7c-7.7-6.8-14.7-14.5-21.4-21.7h70.9c9.8,0,18.5-5.5,22.7-14.4l29.3-63.8
		l42.5,105c3.6,8.9,12,15,21.5,15.6c0.5,0,1.1,0,1.6,0c9,0,17.3-4.8,21.8-12.7l32.4-57.8l9.9,16.5c5.3,8.7,15.3,13.4,25.5,11.7
		c10.1-1.7,18.2-9.5,20.2-19.4l14.8-70l10.9,68.2c1.9,12.1,12.4,20.8,24.6,20.8h113.7C676.2,539.2,669.2,546.9,661.5,553.7z"/>
	<path class="st0" d="M745,416.5c-5.5,23.2-14.5,45-26.1,66.5H590.6l-28.7-180.1c-1.9-11.8-12-20.8-24-21.2
		c-12.7-0.5-22.6,7.9-25.1,19.6l-29.7,139.4c-4.7-7.1-11.7-11.1-21.2-11.2c-8.9,0.1-17,5-21.4,12.7l-28,49.9l-44.6-110.3
		c-3.7-9.2-12.6-15.3-22.5-15.6c-9.2-0.5-19.1,5.7-23.3,14.8l-46.8,101.9h-91c-11.7-21.4-20.6-43.2-26.2-66.4
		c-8.5-35.4-6.1-58.3-5.1-64.7c9.2-97.9,79.9-168.9,168.5-168.9c50.8,0,97.3,23.3,128.6,64.2c31.9-40.4,80.4-64.4,131.5-64.4
		c88.5,0,159.2,71.1,168.5,168.9C751.1,358.2,753.4,381.1,745,416.5z"/>
</g>
</svg>
