<?xml version="1.0" encoding="utf-8"?>
<!-- Generator: Adobe Illustrator 20.0.0, SVG Export Plug-In . SVG Version: 6.00 Build 0)  -->
<svg version="1.1" id="Layer_1" xmlns="http://www.w3.org/2000/svg" xmlns:xlink="http://www.w3.org/1999/xlink" x="0px" y="0px"
	 viewBox="0 0 903.1 903.1" style="enable-background:new 0 0 903.1 903.1;" xml:space="preserve">
<style type="text/css">
	.st0{fill:#FFFFFF;}
</style>
<circle cx="451.5" cy="451.5" r="451.5"/>
<path class="st0" d="M421.8,349L421.8,349c-0.2,19.7-17.4,40-40.5,40v323.2c0,46.3-62.5,46.3-62.5,0V389c-22,0-40.5-17-40.5-42.2
	v-178c0-15.5,22-16.1,22,0.6v132.1h18.5V168.3c0-14.2,22-15.2,22,0.6v132.7h18.5v-133c0-14.9,20.8-15.5,20.8,0.6v132.3h19.7V168.6
	c0-14.8,22-15.4,22,0.6V349z"/>
<path class="st0" d="M627.7,712.2c0,45.1-62.5,44-62.5,0v-199h-33.6V210.1c0-70.6,96-70.6,96,0v502.1H627.7z"/>
</svg>
