<?xml version="1.0" encoding="utf-8"?>
<!-- Generator: Adobe Illustrator 20.0.0, SVG Export Plug-In . SVG Version: 6.00 Build 0)  -->
<svg version="1.1" id="Layer_1" xmlns="http://www.w3.org/2000/svg" xmlns:xlink="http://www.w3.org/1999/xlink" x="0px" y="0px"
	 viewBox="0 0 903.1 903.1" style="enable-background:new 0 0 903.1 903.1;" xml:space="preserve">
<style type="text/css">
	.st0{fill:#FFFFFF;}
</style>
<circle cx="451.5" cy="451.5" r="451.5"/>
<path class="st0" d="M546.6,612.2l-94.7,47.4l-110.3-47.4c-21.3-10.7-31.4-31.7-31.4-47.4v-63.2L452,570.7l141.8-69.2v63.2
	C596.2,580.5,567.9,601.5,546.6,612.2z"/>
<path class="st0" d="M657.8,427.6c0,0,0,89.9,0,137.3c0,29.8,31.4,31.6,31.4,31.6v31.6c0,0-63.9,0-63.9-63.2c0-39.9,0-119.5,0-119.5
	l-173.6,87.9L151.6,375.2l300.3-158l300.5,158L657.8,427.6z"/>
</svg>
