<?xml version="1.0" encoding="utf-8"?>
<!-- Generator: Adobe Illustrator 20.0.0, SVG Export Plug-In . SVG Version: 6.00 Build 0)  -->
<svg version="1.1" id="Layer_1" xmlns="http://www.w3.org/2000/svg" xmlns:xlink="http://www.w3.org/1999/xlink" x="0px" y="0px"
	 viewBox="0 0 81.8 62.2" style="enable-background:new 0 0 81.8 62.2;" xml:space="preserve">
<style type="text/css">
	.st0{fill:#017B8A;}
	.st1{display:none;enable-background:new    ;}
	.st2{display:inline;}
</style>
<g id="aux_copy">
</g>
<g id="dimensions_copy">
</g>
<g id="guidelines_copy">
</g>
<g id="notes_copy">
</g>
<path class="st0" d="M5.4,62.2c-2,0-3.9-0.5-5.4-1.1l0.7-3c1.5,0.5,3.1,0.8,4.8,0.8c2,0,2.3-0.3,2.3-1.8c0-1.5,0-1.6-2.8-2.3
	c-4.1-0.8-4.6-1.6-4.6-5.3c0-3.3,1.1-4.6,5.7-4.6c1.5,0,3.3,0.2,5.1,0.5l-0.3,3.1c-2-0.3-3.1-0.5-4.6-0.5c-1.6,0-2,0.3-2,1.5
	c0,1.6,0,1.6,2.6,2.3c4.4,1.1,4.8,2,4.8,5.3C11.5,60.6,10.5,62.2,5.4,62.2z"/>
<path class="st0" d="M20.8,48.6v13.3h-3.8V48.6h-4.4v-3.3h12.6v3.3H20.8z"/>
<path class="st0" d="M26.8,62V45.5h3.8v13.3h6.6V62H26.8z"/>
<g>
	<path class="st0" d="M44,60.8h7.8v1.4h-9.3V45H44V60.8z"/>
	<path class="st0" d="M65.1,57.6h-8l-1.6,4.5h-1.5l6-17.2h2.3l6,17.2h-1.5L65.1,57.6z M57.5,56.3h7.1L61,45.9L57.5,56.3z"/>
	<path class="st0" d="M71.1,62.2V45h6.5c2.3,0,3.7,1.1,3.7,3.4v2.1c0,1.4-0.6,2.3-2,2.8c1.3,0.2,2.5,1.3,2.5,3.2v2.3
		c0,2.4-1.7,3.5-4,3.5H71.1z M79.8,48.2c0-1.2-0.7-1.8-2.2-1.8h-5v6.4h4.5c1.9,0,2.7-1,2.7-2.4V48.2z M80.3,56.5
		c0-1.5-0.9-2.4-2.9-2.4h-4.8v6.8h5.3c1.6,0,2.4-0.8,2.4-2.2V56.5z"/>
</g>
<path d="M52.6,6.9V0h19.1v6.9H52.6z M17.2,23.4V0h7.2v23.4H17.2z M29,34.3V0h7.2v34.3H29z M5.4,34.3V0h7.2v34.3H5.4z M52.6,34.3
	V10.9h7.2v23.4H52.6z M40.8,6.9V0h7.3v6.9H40.8z"/>
<rect x="40.8" y="10.8" class="st0" width="7.2" height="23.4"/>
<text transform="matrix(1 0 0 1 -3.2664 100.4375)" class="st1" style="font-family:'STHeitiSC-Medium'; font-size:21px;">麻省理工学院李德义地产创业实验室</text>
</svg>
