<?xml version="1.0" encoding="utf-8"?>
<!-- Generator: Adobe Illustrator 19.2.1, SVG Export Plug-In . SVG Version: 6.00 Build 0)  -->
<svg version="1.1" xmlns="http://www.w3.org/2000/svg" xmlns:xlink="http://www.w3.org/1999/xlink" x="0px" y="0px"
	 viewBox="0 0 519.3 288.5" style="enable-background:new 0 0 519.3 288.5;" xml:space="preserve">
<style type="text/css">
	.st0{fill:#221F1F;}
	.st1{fill:#007B8A;}
	.st2{fill:none;stroke:#FFFFFF;stroke-miterlimit:10;}
	.st3{fill:none;}
	.st4{display:none;}
	.st5{font-family:'STHeitiSC-Medium';}
	.st6{font-size:21px;}
</style>
<g id="option_B">
	<g id="aux_copy">
	</g>
	<g id="dimensions_copy">
	</g>
	<g id="guidelines_copy">
	</g>
	<g id="notes_copy">
	</g>
	<g id="wordmark_copy">
		<g>
			<path class="st0" d="M236.3-674.9h9.7v1.4h-8.2v6.4h7.6v1.4h-7.6v6.7h8.2v1.4h-9.7V-674.9z"/>
			<path class="st0" d="M250.8-673.4v15.8h-1.5v-17.3h2.2l8.2,15.8v-15.8h1.5v17.3H259L250.8-673.4z"/>
			<path class="st0" d="M269.3-673.5h-5.3v-1.4h12.2v1.4h-5.3v15.9h-1.5V-673.5z"/>
			<path class="st0" d="M285.3-664.2h-0.3h-4.6v6.6h-1.5v-17.3h6.1c3.5,0,4.7,1.6,4.7,4v2.6c0,1.9-0.8,3.3-2.8,3.8l4.6,6.8h-1.7
				L285.3-664.2z M285-673.5h-4.6v7.9h4.6c2.2,0,3.2-0.7,3.2-2.6v-2.6C288.2-672.8,287.2-673.5,285-673.5z"/>
			<path class="st0" d="M294.5-674.9h9.7v1.4H296v6.4h7.6v1.4H296v6.7h8.2v1.4h-9.7V-674.9z"/>
			<path class="st0" d="M307.5-674.9h5.9c3.5,0,4.7,1.6,4.7,4v2.7c0,2.4-1.3,4-4.7,4H309v6.6h-1.5V-674.9z M313.4-673.5H309v7.9h4.4
				c2.2,0,3.2-0.7,3.2-2.6v-2.7C316.6-672.8,315.6-673.5,313.4-673.5z"/>
			<path class="st0" d="M327.6-664.2h-0.3h-4.6v6.6h-1.5v-17.3h6.1c3.5,0,4.7,1.6,4.7,4v2.6c0,1.9-0.8,3.3-2.8,3.8l4.6,6.8H332
				L327.6-664.2z M327.2-673.5h-4.6v7.9h4.6c2.2,0,3.2-0.7,3.2-2.6v-2.6C330.4-672.8,329.4-673.5,327.2-673.5z"/>
			<path class="st0" d="M336.7-674.9h9.7v1.4h-8.2v6.4h7.6v1.4h-7.6v6.7h8.2v1.4h-9.7V-674.9z"/>
			<path class="st0" d="M351.2-673.4v15.8h-1.5v-17.3h2.2l8.2,15.8v-15.8h1.5v17.3h-2.2L351.2-673.4z"/>
			<path class="st0" d="M365.4-674.9h9.7v1.4h-8.2v6.4h7.6v1.4h-7.6v6.7h8.2v1.4h-9.7V-674.9z"/>
			<path class="st0" d="M390.3-674.9v12.4c0,2.9-1.8,5.2-6,5.2c-4.2,0-6-2.2-6-5.2v-12.4h1.5v12.4c0,2.4,1.5,3.8,4.4,3.8
				c2.9,0,4.4-1.4,4.4-3.8v-12.4H390.3z"/>
			<path class="st0" d="M400.4-664.2h-0.3h-4.6v6.6h-1.5v-17.3h6.1c3.5,0,4.7,1.6,4.7,4v2.6c0,1.9-0.8,3.3-2.8,3.8l4.6,6.8h-1.7
				L400.4-664.2z M400.1-673.5h-4.6v7.9h4.6c2.2,0,3.2-0.7,3.2-2.6v-2.6C403.3-672.8,402.3-673.5,400.1-673.5z"/>
			<path class="st0" d="M414.2-657.4c-1.5,0-3.4-0.3-4.9-0.8l0.3-1.2c1.6,0.5,3.1,0.7,4.6,0.7c3,0,3.8-0.9,3.8-3.1
				c0-2.7,0-3-3.9-3.8c-4.2-1-4.6-1.7-4.6-5.2c0-2.8,1-4.3,5.4-4.3c1.5,0,3.3,0.3,4.5,0.6l-0.2,1.3c-1.3-0.3-2.9-0.5-4.2-0.5
				c-3.4,0-3.9,0.8-3.9,3c0,2.8,0.1,2.9,3.7,3.8c4.5,1.1,4.8,1.8,4.8,5.1C419.5-659.1,418.5-657.4,414.2-657.4z"/>
			<path class="st0" d="M432.8-657.6v-8.2h-8.3v8.2h-1.5v-17.3h1.5v7.7h8.3v-7.7h1.5v17.3H432.8z"/>
			<path class="st0" d="M439.6-657.6h-1.5v-17.3h1.5V-657.6z"/>
			<path class="st0" d="M443.4-674.9h5.9c3.5,0,4.7,1.6,4.7,4v2.7c0,2.4-1.3,4-4.7,4h-4.3v6.6h-1.5V-674.9z M449.3-673.5h-4.4v7.9
				h4.4c2.2,0,3.2-0.7,3.2-2.6v-2.7C452.5-672.8,451.4-673.5,449.3-673.5z"/>
		</g>
		<g>
			<path class="st0" d="M91.4-663.9h-4.2v6.2H85v-17.3h6.6c3.7,0,5,1.6,5,4.3v2.5c0,2-0.8,3.4-2.7,4l4.5,6.5h-2.6L91.4-663.9z
				 M91.5-672.9h-4.3v7h4.3c2.1,0,2.9-0.6,2.9-2.3v-2.5C94.3-672.3,93.6-672.9,91.5-672.9z"/>
			<path class="st0" d="M101-674.9h10.2v2h-7.9v5.4h7.4v2h-7.4v5.9h8v2H101V-674.9z"/>
			<path class="st0" d="M128.1-657.6h-2.3l-1.4-4.1h-7.3l-1.4,4.1h-2.3l5.8-17.3h3L128.1-657.6z M120.8-673.3l-3.1,9.6h6.2
				L120.8-673.3z"/>
			<path class="st0" d="M132.9-659.6h7.5v2h-9.7v-17.3h2.2V-659.6z"/>
		</g>
		<g>
			<path class="st0" d="M150.1-674.9h10.2v2h-7.9v5.4h7.4v2h-7.4v5.9h8v2h-10.2V-674.9z"/>
			<path class="st0" d="M168.1-657.4c-1.7,0-3.7-0.3-5.1-0.9l0.4-1.8c1.6,0.5,3.2,0.8,4.8,0.8c2.8,0,3.3-0.7,3.3-2.7
				c0-2.3,0-2.5-3.6-3.3c-4.2-0.9-4.7-1.7-4.7-5.3c0-3,1.2-4.5,5.5-4.5c1.5,0,3.3,0.2,4.7,0.6l-0.2,1.9c-1.4-0.3-3-0.5-4.4-0.5
				c-2.8,0-3.3,0.6-3.3,2.6c0,2.4,0,2.5,3.4,3.3c4.6,1.1,4.8,1.8,4.8,5.2C173.7-659.1,172.8-657.4,168.1-657.4z"/>
			<path class="st0" d="M180.9-672.9h-5.2v-2h12.5v2h-5.2v15.3h-2.2V-672.9z"/>
			<path class="st0" d="M202.2-657.6h-2.3l-1.4-4.1h-7.3l-1.4,4.1h-2.3l5.8-17.3h3L202.2-657.6z M194.9-673.3l-3.1,9.6h6.2
				L194.9-673.3z"/>
			<path class="st0" d="M206.5-672.9h-5.2v-2h12.5v2h-5.2v15.3h-2.2V-672.9z"/>
			<path class="st0" d="M216.4-674.9h10.2v2h-7.9v5.4h7.4v2h-7.4v5.9h8v2h-10.2V-674.9z"/>
		</g>
		<g>
			<g>
				<path class="st1" d="M40.1-681.5c-1.2,0-2.4-0.3-3.3-0.7l0.4-1.8c0.9,0.3,1.9,0.5,2.9,0.5c1.2,0,1.4-0.2,1.4-1.1
					c0-0.9,0-1-1.7-1.4c-2.5-0.5-2.8-1-2.8-3.2c0-2,0.7-2.8,3.5-2.8c0.9,0,2,0.1,3.1,0.3l-0.2,1.9c-1.2-0.2-1.9-0.3-2.8-0.3
					c-1,0-1.2,0.2-1.2,0.9c0,1,0,1,1.6,1.4c2.7,0.7,2.9,1.2,2.9,3.2C43.8-682.5,43.2-681.5,40.1-681.5z"/>
				<path class="st1" d="M54-681.6h-2.4l-0.5-2h-3.4l-0.5,2h-2.4l3.1-10.1h3L54-681.6z M48.2-685.5h2.3l-1.2-4.3L48.2-685.5z"/>
				<path class="st1" d="M57.7-687.3l-0.2,5.6h-2.2l0.4-10.1h2.3l2.4,6.5l2.4-6.5h2.3l0.4,10.1h-2.2l-0.2-5.6l-1.8,4.3h-2
					L57.7-687.3z"/>
				<path class="st1" d="M75-691.8v7.2c0,1.5-1,3.1-3.8,3.1s-3.8-1.6-3.8-3.1v-7.2h2.3v7c0,0.8,0.4,1.3,1.5,1.3s1.5-0.5,1.5-1.3v-7
					H75z"/>
				<path class="st1" d="M76.9-681.6v-10.1h6.4v2h-4.1v1.9H83v2h-3.8v2.2h4.1v2H76.9z"/>
				<path class="st1" d="M85-681.6v-10.1h2.3v8.1h4v2H85z"/>
				<path class="st1" d="M99.9-689.8v8.1h-2.3v-8.1h-2.7v-2h7.7v2H99.9z"/>
				<path class="st1" d="M111.7-681.6h-2.4l-0.5-2h-3.4l-0.5,2h-2.4l3.1-10.1h3L111.7-681.6z M105.9-685.5h2.3l-1.2-4.3L105.9-685.5
					z"/>
				<path class="st1" d="M113.1-691.8h2.3v10.1h-2.3V-691.8z M115.7-686.8l2.7-5h2.6l-2.8,5l3.1,5.2h-2.6L115.7-686.8z"/>
				<path class="st1" d="M125.6-681.6v-10.1h2.3v8.1h4v2H125.6z"/>
				<path class="st1" d="M133.4-681.6v-10.1h6.4v2h-4.1v1.9h3.8v2h-3.8v2.2h4.1v2H133.4z"/>
				<path class="st1" d="M141.5-681.6v-10.1h6.4v2h-4.1v1.9h3.8v2h-3.8v2.2h4.1v2H141.5z"/>
			</g>
		</g>
		<g>
			<path class="st0" d="M40.7-667.2l-0.3,9.6h-3.8l0.7-17.3h3.9l4.1,11l4.1-11h3.9l0.7,17.3h-3.8l-0.3-9.6l-3,7.4h-3.5L40.7-667.2z"
				/>
			<path class="st0" d="M56.3-657.6v-17.3h3.9v17.3H56.3z"/>
			<path class="st0" d="M70.1-671.4v13.8h-3.9v-13.8h-4.6v-3.4h13.2v3.4H70.1z"/>
		</g>
		<g>
			<path class="st0" d="M464.1-659h7.8v1.4h-9.3v-17.3h1.5V-659z"/>
			<path class="st0" d="M485.3-662.2h-8l-1.6,4.5h-1.5l6-17.3h2.3l6,17.3h-1.5L485.3-662.2z M477.7-663.5h7.1l-3.6-10.5L477.7-663.5
				z"/>
			<path class="st0" d="M491.3-657.6v-17.3h6.5c2.3,0,3.7,1.1,3.7,3.4v2.1c0,1.4-0.6,2.3-2,2.8c1.3,0.2,2.5,1.3,2.5,3.2v2.3
				c0,2.4-1.7,3.5-4,3.5H491.3z M500-671.7c0-1.2-0.7-1.8-2.2-1.8h-5v6.4h4.5c1.9,0,2.7-1,2.7-2.4V-671.7z M500.5-663.3
				c0-1.5-0.9-2.4-2.9-2.4h-4.8v6.8h5.3c1.6,0,2.4-0.8,2.4-2.2V-663.3z"/>
		</g>
	</g>
</g>
<g id="chinese">
	<g id="mit_logo_copy">
		<path d="M85.8-738.5v-6.9h19.1v6.9H85.8z M50.4-722v-23.4h7.2v23.4H50.4z M62.2-711.1v-34.3h7.2v34.3H62.2z M38.6-711.1v-34.3h7.2
			v34.3H38.6z M85.8-711.1v-23.4h7.2v23.4H85.8z M74-738.5v-6.9h7.3v6.9H74z"/>
		<rect x="74" y="-734.6" class="st1" width="7.2" height="23.4"/>
		<rect x="16.1" y="-763.4" class="st2" width="495" height="184.5"/>
		<rect x="29.9" y="153.4" class="st3" width="472.5" height="49.5"/>
		<text transform="matrix(1 0 0 1 29.8946 170.4375)" class="st4 st5 st6">麻省理工学院李德义地产创业实验室</text>
	</g>
</g>
</svg>
